<?xml version="1.0" encoding="utf-8"?>
<!-- Generator: Adobe Illustrator 23.0.0, SVG Export Plug-In . SVG Version: 6.00 Build 0)  -->
<svg version="1.1" id="Layer_1" xmlns="http://www.w3.org/2000/svg" xmlns:xlink="http://www.w3.org/1999/xlink" x="0px" y="0px"
	 viewBox="0 0 300 400" style="enable-background:new 0 0 300 400;" xml:space="preserve">
<style type="text/css">
	.st0{fill:none;stroke:#FFFFFF;stroke-width:2;stroke-miterlimit:10;}
	.st1{fill:none;stroke:#1DD1A1;stroke-miterlimit:10;}
	.st2{fill:none;stroke:#FFFFFF;stroke-miterlimit:10;}
	.st3{fill:#1DD1A1;}
	.st4{fill:none;}
	.st5{fill:#1DD1A1;stroke:#1DD1A1;stroke-miterlimit:10;}
</style>
<rect width="300" height="400"/>
<rect x="64" y="56.3" class="st0" width="170" height="171.7"/>
<circle class="st1" cx="149" cy="143" r="85"/>
<rect x="130" y="228" class="st0" width="104" height="104"/>
<circle class="st1" cx="182" cy="280" r="52"/>
<rect x="64" y="266" class="st0" width="66" height="66"/>
<rect x="64" y="228" class="st0" width="38" height="38"/>
<circle class="st1" cx="97" cy="299" r="33"/>
<circle class="st1" cx="83" cy="247" r="19"/>
<circle class="st1" cx="115.5" cy="241.5" r="13.5"/>
<line class="st0" x1="102" y1="255" x2="129" y2="255"/>
<path class="st2" d="M64,56c110.99,28.28,177.34,105.89,170,172c-5.58,50.24-55.35,108.69-104,104c-33.19-3.2-69.43-36.13-66-66
	c2.06-17.93,19.07-40.46,38-38c11.83,1.53,22,12.51,27,27"/>
<g>
	<path class="st3" d="M133.24,118h-28.56v7.14h28.6v21.42h-14.32c-7.89,0-14.28,6.39-14.28,14.28s6.39,14.28,14.28,14.28h21.39
		v-50.63C140.03,120.85,136.97,118,133.24,118z M133.1,167.98h-14.14c-3.94,0-7.14-3.2-7.14-7.14s3.2-7.14,7.14-7.14h14.14V167.98z"
		/>
	<path class="st3" d="M168.95,132.28c0,6.91-4.91,12.67-11.42,13.99c-0.9,0.18-1.83,0.28-2.79,0.29h-14.38v-7.14h14.31
		c3.94,0,7.14-3.2,7.14-7.14c0-3.94-3.2-7.14-7.14-7.14h-14.28c0-0.22-0.01-0.44-0.03-0.65v-6.42l0.1-0.08h14.28
		C162.59,118.04,168.95,124.42,168.95,132.28z"/>
	<path class="st3" d="M197.51,146.56c0,15.78-12.79,28.56-28.56,28.56h-8.57l-10.28-28.56h4.64c0.96-0.01,1.89-0.1,2.79-0.29
		l7.85,21.71h3.57c11.83,0,21.42-9.59,21.42-21.42s-9.59-21.42-21.42-21.42V118C184.72,118,197.51,130.79,197.51,146.56z"/>
	<path class="st4" d="M133.1,153.7v14.28h-14.14c-3.94,0-7.14-3.2-7.14-7.14s3.2-7.14,7.14-7.14H133.1z"/>
</g>
<circle class="st5" cx="0.5" cy="56.5" r="33"/>
<rect x="274.5" y="293.5" class="st5" width="53" height="53"/>
<polygon class="st5" points="320.18,28.5 279.55,28.5 259.23,63.69 279.55,98.88 320.18,98.88 340.5,63.69 "/>
<polygon class="st5" points="0.5,316.69 10.14,336.23 31.7,339.36 16.1,354.57 19.78,376.04 0.5,365.9 -18.78,376.04 -15.1,354.57 
	-30.7,339.36 -9.14,336.23 "/>
</svg>
