<?xml version="1.0" encoding="utf-8"?>
<!-- Generator: Adobe Illustrator 23.0.0, SVG Export Plug-In . SVG Version: 6.00 Build 0)  -->
<svg version="1.1" id="Layer_1" xmlns="http://www.w3.org/2000/svg" xmlns:xlink="http://www.w3.org/1999/xlink" x="0px" y="0px"
	 viewBox="0 0 300 400" style="enable-background:new 0 0 300 400;" xml:space="preserve">
<style type="text/css">
	.st0{opacity:0.68;}
	.st1{clip-path:url(#SVGID_2_);}
	.st2{fill:#ABA4A6;stroke:#FFFFFF;stroke-width:0.5;stroke-miterlimit:10;}
	.st3{clip-path:url(#SVGID_4_);}
	.st4{fill:#1DD1A1;}
	.st5{fill:none;stroke:#FFFFFF;stroke-miterlimit:10;}
	.st6{fill:none;stroke:#FFFFFF;stroke-width:0.75;stroke-miterlimit:10;}
	.st7{fill:none;stroke:#FFFFFF;stroke-width:0.5;stroke-miterlimit:10;}
</style>
<g>
	<rect width="300" height="400"/>
</g>
<g class="st0">
	<defs>
		<rect id="SVGID_1_" x="-1.09" y="256.09" class="st0" width="72.09" height="144.19"/>
	</defs>
	<clipPath id="SVGID_2_">
		<use xlink:href="#SVGID_1_"  style="overflow:visible;"/>
	</clipPath>
	<g class="st1">
		<polygon class="st2" points="-93.45,544.47 71,380.01 71,379.33 -94.13,544.47 		"/>
		<polygon class="st2" points="-79.72,544.47 71,393.75 71,393.07 -80.4,544.47 		"/>
		<polygon class="st2" points="-107.19,544.47 71,366.28 71,365.6 -107.87,544.47 		"/>
		<polygon class="st2" points="-120.92,544.47 71,352.55 71,351.87 -121.6,544.47 		"/>
		<polygon class="st2" points="-134.65,544.47 71,338.82 71,338.14 -135.33,544.47 		"/>
		<polygon class="st2" points="-148.38,544.47 71,325.09 71,324.41 -149.06,544.47 		"/>
		<polygon class="st2" points="-162.11,544.47 71,311.36 71,310.68 -162.79,544.47 		"/>
		<polygon class="st2" points="-175.84,544.47 71,297.62 71,296.94 -176.52,544.47 		"/>
		<polygon class="st2" points="-189.58,544.47 71,283.89 71,283.21 -190.26,544.47 		"/>
		<polygon class="st2" points="-203.31,544.47 71,270.16 71,269.48 -203.99,544.47 		"/>
		<polygon class="st2" points="71,256.09 70.66,256.09 -217.38,544.13 -217.38,544.47 -217.04,544.47 71,256.43 		"/>
		<polygon class="st2" points="56.93,256.09 -217.38,530.4 -217.38,531.08 57.61,256.09 		"/>
		<polygon class="st2" points="43.2,256.09 -217.38,516.67 -217.38,517.34 43.88,256.09 		"/>
		<polygon class="st2" points="29.47,256.09 -217.38,502.93 -217.38,503.61 30.14,256.09 		"/>
		<polygon class="st2" points="15.73,256.09 -217.38,489.2 -217.38,489.88 16.41,256.09 		"/>
		<polygon class="st2" points="2,256.09 -217.38,475.47 -217.38,476.15 2.68,256.09 		"/>
	</g>
	<use xlink:href="#SVGID_1_"  style="overflow:visible;fill:none;stroke:#020405;stroke-width:0.5;stroke-miterlimit:10;"/>
</g>
<g class="st0">
	<defs>
		<rect id="SVGID_3_" x="226.91" y="28.09" class="st0" width="72.09" height="144.19"/>
	</defs>
	<clipPath id="SVGID_4_">
		<use xlink:href="#SVGID_3_"  style="overflow:visible;"/>
	</clipPath>
	<g class="st3">
		<polygon class="st2" points="134.55,316.47 299,152.01 299,151.33 133.87,316.47 		"/>
		<polygon class="st2" points="148.28,316.47 299,165.75 299,165.07 147.6,316.47 		"/>
		<polygon class="st2" points="162.01,316.47 299,179.48 299,178.8 161.33,316.47 		"/>
		<polygon class="st2" points="175.74,316.47 299,193.21 299,192.53 175.06,316.47 		"/>
		<polygon class="st2" points="189.47,316.47 299,206.94 299,206.26 188.79,316.47 		"/>
		<polygon class="st2" points="203.2,316.47 299,220.67 299,219.99 202.52,316.47 		"/>
		<polygon class="st2" points="216.94,316.47 299,234.4 299,233.72 216.26,316.47 		"/>
		<polygon class="st2" points="230.67,316.47 299,248.14 299,247.46 229.99,316.47 		"/>
		<polygon class="st2" points="244.4,316.47 299,261.87 299,261.19 243.72,316.47 		"/>
		<polygon class="st2" points="258.13,316.47 299,275.6 299,274.92 257.45,316.47 		"/>
		<polygon class="st2" points="271.86,316.47 299,289.33 299,288.65 271.18,316.47 		"/>
		<polygon class="st2" points="285.59,316.47 299,303.06 299,302.38 284.91,316.47 		"/>
		<polygon class="st2" points="299,316.47 299,316.11 298.65,316.47 		"/>
		<polygon class="st2" points="120.81,316.47 299,138.28 299,137.6 120.13,316.47 		"/>
		<polygon class="st2" points="107.08,316.47 299,124.55 299,123.87 106.4,316.47 		"/>
		<polygon class="st2" points="93.35,316.47 299,110.82 299,110.14 92.67,316.47 		"/>
		<polygon class="st2" points="79.62,316.47 299,97.09 299,96.41 78.94,316.47 		"/>
		<polygon class="st2" points="65.89,316.47 299,83.36 299,82.68 65.21,316.47 		"/>
		<polygon class="st2" points="52.16,316.47 299,69.62 299,68.94 51.48,316.47 		"/>
		<polygon class="st2" points="38.42,316.47 299,55.89 299,55.21 37.74,316.47 		"/>
		<polygon class="st2" points="24.69,316.47 299,42.16 299,41.48 24.01,316.47 		"/>
		<polygon class="st2" points="299,28.09 298.66,28.09 10.62,316.13 10.62,316.47 10.96,316.47 299,28.43 		"/>
		<polygon class="st2" points="284.93,28.09 10.62,302.4 10.62,303.08 285.61,28.09 		"/>
		<polygon class="st2" points="271.2,28.09 10.62,288.67 10.62,289.34 271.88,28.09 		"/>
		<polygon class="st2" points="257.47,28.09 10.62,274.93 10.62,275.61 258.14,28.09 		"/>
		<polygon class="st2" points="243.73,28.09 10.62,261.2 10.62,261.88 244.41,28.09 		"/>
		<polygon class="st2" points="230,28.09 10.62,247.47 10.62,248.15 230.68,28.09 		"/>
		<polygon class="st2" points="216.27,28.09 10.62,233.74 10.62,234.42 216.95,28.09 		"/>
		<polygon class="st2" points="202.54,28.09 10.62,220.01 10.62,220.69 203.22,28.09 		"/>
		<polygon class="st2" points="188.81,28.09 10.62,206.28 10.62,206.95 189.49,28.09 		"/>
		<polygon class="st2" points="175.08,28.09 10.62,192.54 10.62,193.22 175.75,28.09 		"/>
		<polygon class="st2" points="161.34,28.09 10.62,178.81 10.62,179.49 162.02,28.09 		"/>
		<polygon class="st2" points="147.61,28.09 10.62,165.08 10.62,165.76 148.29,28.09 		"/>
		<polygon class="st2" points="133.88,28.09 10.62,151.35 10.62,152.03 134.56,28.09 		"/>
		<polygon class="st2" points="120.15,28.09 10.62,137.62 10.62,138.3 120.83,28.09 		"/>
		<polygon class="st2" points="106.42,28.09 10.62,123.89 10.62,124.56 107.1,28.09 		"/>
		<polygon class="st2" points="92.69,28.09 10.62,110.15 10.62,110.83 93.36,28.09 		"/>
		<polygon class="st2" points="78.95,28.09 10.62,96.42 10.62,97.1 79.63,28.09 		"/>
		<polygon class="st2" points="65.22,28.09 10.62,82.69 10.62,83.37 65.9,28.09 		"/>
		<polygon class="st2" points="51.49,28.09 10.62,68.96 10.62,69.64 52.17,28.09 		"/>
		<polygon class="st2" points="37.76,28.09 10.62,55.23 10.62,55.91 38.44,28.09 		"/>
		<polygon class="st2" points="24.03,28.09 10.62,41.49 10.62,42.17 24.71,28.09 		"/>
		<polygon class="st2" points="10.62,28.09 10.62,28.44 10.97,28.09 		"/>
	</g>
	<use xlink:href="#SVGID_3_"  style="overflow:visible;fill:none;stroke:#020405;stroke-width:0.5;stroke-miterlimit:10;"/>
</g>
<circle class="st4" cx="85" cy="292" r="37"/>
<circle class="st5" cx="97" cy="306" r="37"/>
<rect x="173" y="101" class="st4" width="62" height="62"/>
<rect x="190.5" y="119.5" class="st5" width="57" height="57"/>
<line class="st5" x1="1" y1="36.5" x2="301" y2="35.5"/>
<line class="st5" x1="180.5" y1="72.5" x2="299.5" y2="72.5"/>
<line class="st5" x1="226.5" y1="35.5" x2="226.5" y2="72.5"/>
<path class="st6" d="M88.96,171.5H46.04c-1.4,0-2.54-1.14-2.54-2.54V84.04c0-1.4,1.14-2.54,2.54-2.54h42.93
	c1.4,0,2.54,1.14,2.54,2.54v84.93C91.5,170.36,90.36,171.5,88.96,171.5z"/>
<path class="st6" d="M243.39,359.5h-33.79c-3.93,0-7.11-3.18-7.11-7.11v-75.79c0-3.93,3.18-7.11,7.11-7.11h33.79
	c3.93,0,7.11,3.18,7.11,7.11v75.79C250.5,356.32,247.32,359.5,243.39,359.5z"/>
<line class="st6" x1="43" y1="159.5" x2="91" y2="159.5"/>
<line class="st6" x1="44" y1="91.5" x2="92" y2="91.5"/>
<circle class="st7" cx="67.5" cy="165.5" r="4"/>
<line class="st7" x1="63.5" y1="91.5" x2="63.5" y2="138.5"/>
<line class="st7" x1="63.5" y1="99.5" x2="91.5" y2="99.5"/>
<path class="st5" d="M230.63,269.64c0,2.21-1.79,4-4,4s-4-1.79-4-4"/>
<line class="st7" x1="203" y1="283.5" x2="251" y2="283.5"/>
<line class="st7" x1="223" y1="296" x2="250" y2="296"/>
<g>
	<path class="st5" d="M154.34,235.03c-0.09-0.05-0.19-0.09-0.29-0.14c0.96-1.4,1.48-3.11,1.48-4.93c0-4.39-3.09-7.96-6.9-7.96
		c-3.8,0-6.9,3.57-6.9,7.96c0,1.82,0.52,3.54,1.48,4.93c-0.15,0.07-0.25,0.12-0.29,0.14c-4.04,1.86-6.65,5.91-6.65,10.34v2.76
		c0,1.19,0.97,2.15,2.15,2.15h20.42c1.19,0,2.15-0.97,2.15-2.15v-2.76C161,240.94,158.39,236.89,154.34,235.03z"/>
	<g>
		<path class="st5" d="M154.02,235.7c-0.04,0.05-0.07,0.09-0.11,0.14c-1.39,1.63-3.27,2.54-5.27,2.54c-2,0-3.87-0.9-5.27-2.54
			c-0.04-0.04-0.07-0.09-0.11-0.14c-3.67,1.68-6.24,5.39-6.24,9.67v2.76c0,0.78,0.63,1.41,1.41,1.41h20.42
			c0.78,0,1.41-0.63,1.41-1.41v-2.76C160.25,241.09,157.69,237.38,154.02,235.7z"/>
		<path class="st5" d="M148.64,237.17c1.62,0,3.09-0.73,4.18-1.93c1.21-1.32,1.97-3.2,1.97-5.29c0-3.98-2.75-7.21-6.15-7.21
			c-3.4,0-6.15,3.23-6.15,7.21c0,2.09,0.76,3.97,1.97,5.29C145.55,236.44,147.02,237.17,148.64,237.17z"/>
	</g>
</g>
<g>
	<path class="st5" d="M174.23,239.34c-0.07-0.03-0.14-0.07-0.21-0.1c0.69-1,1.06-2.23,1.06-3.54c0-3.15-2.22-5.71-4.95-5.71
		c-2.73,0-4.95,2.56-4.95,5.71c0,1.31,0.37,2.54,1.06,3.54c-0.11,0.05-0.18,0.09-0.21,0.1c-2.9,1.33-4.77,4.24-4.77,7.41v1.98
		c0,0.85,0.69,1.54,1.54,1.54h14.64c0.85,0,1.54-0.69,1.54-1.54v-1.98C179.01,243.58,177.13,240.67,174.23,239.34z"/>
	<g>
		<path class="st5" d="M174,239.83c-0.03,0.03-0.05,0.07-0.08,0.1c-1,1.17-2.34,1.82-3.78,1.82c-1.44,0-2.78-0.65-3.78-1.82
			c-0.03-0.03-0.05-0.07-0.08-0.1c-2.63,1.2-4.47,3.86-4.47,6.93v1.98c0,0.56,0.45,1.01,1.01,1.01h14.64c0.56,0,1.01-0.45,1.01-1.01
			v-1.98C178.47,243.69,176.63,241.03,174,239.83z"/>
		<path class="st5" d="M170.14,240.88c1.16,0,2.21-0.52,3-1.38c0.87-0.94,1.41-2.29,1.41-3.79c0-2.86-1.98-5.17-4.41-5.17
			c-2.44,0-4.41,2.32-4.41,5.17c0,1.5,0.54,2.85,1.41,3.79C167.93,240.35,168.98,240.88,170.14,240.88z"/>
	</g>
</g>
<g>
	<path class="st5" d="M131.23,239.34c-0.07-0.03-0.14-0.07-0.21-0.1c0.69-1,1.06-2.23,1.06-3.54c0-3.15-2.22-5.71-4.95-5.71
		c-2.73,0-4.95,2.56-4.95,5.71c0,1.31,0.37,2.54,1.06,3.54c-0.11,0.05-0.18,0.09-0.21,0.1c-2.9,1.33-4.77,4.24-4.77,7.41v1.98
		c0,0.85,0.69,1.54,1.54,1.54h14.64c0.85,0,1.54-0.69,1.54-1.54v-1.98C136.01,243.58,134.13,240.67,131.23,239.34z"/>
	<g>
		<path class="st5" d="M131,239.83c-0.03,0.03-0.05,0.07-0.08,0.1c-1,1.17-2.34,1.82-3.78,1.82c-1.44,0-2.78-0.65-3.78-1.82
			c-0.03-0.03-0.05-0.07-0.08-0.1c-2.63,1.2-4.47,3.86-4.47,6.93v1.98c0,0.56,0.45,1.01,1.01,1.01h14.64c0.56,0,1.01-0.45,1.01-1.01
			v-1.98C135.47,243.69,133.63,241.03,131,239.83z"/>
		<path class="st5" d="M127.14,240.88c1.16,0,2.21-0.52,3-1.38c0.87-0.94,1.41-2.29,1.41-3.79c0-2.86-1.98-5.17-4.41-5.17
			c-2.44,0-4.41,2.32-4.41,5.17c0,1.5,0.54,2.85,1.41,3.79C124.93,240.35,125.98,240.88,127.14,240.88z"/>
	</g>
</g>
</svg>
