<?xml version="1.0" encoding="utf-8"?>
<!-- Generator: Adobe Illustrator 23.0.0, SVG Export Plug-In . SVG Version: 6.00 Build 0)  -->
<svg version="1.1" id="Layer_1" xmlns="http://www.w3.org/2000/svg" xmlns:xlink="http://www.w3.org/1999/xlink" x="0px" y="0px"
	 viewBox="0 0 300 400" style="enable-background:new 0 0 300 400;" xml:space="preserve">
<style type="text/css">
	.st0{fill:none;stroke:#2ECC71;stroke-miterlimit:10;}
	.st1{fill:none;stroke:#EFEFEF;stroke-width:0.75;stroke-miterlimit:10;}
	.st2{fill:#FFFFFF;}
	.st3{font-family:'Gilroy-Light';}
	.st4{font-size:10px;}
	.st5{fill:none;stroke:#FFFFFF;stroke-width:0.25;stroke-miterlimit:10;}
	.st6{fill:none;}
	.st7{fill:#D1D1D1;}
	.st8{fill:#222F3E;}
	.st9{fill:none;stroke:#EFEFEF;stroke-width:0.5;stroke-miterlimit:10;}
	.st10{fill:#EFEFEF;}
	.st11{fill:#2ECC71;stroke:#2ECC71;stroke-miterlimit:10;}
	.st12{font-family:'MyriadPro-Regular';}
	.st13{font-size:41.694px;}
	.st14{font-family:'Gilroy-Regular';}
	.st15{font-size:8px;}
	.st16{font-size:7px;}
</style>
<rect width="300" height="400"/>
<rect x="26.5" y="38.5" class="st0" width="250" height="194"/>
<path class="st1" d="M253.86,71.5H49.14c-2.01,0-3.64-1.63-3.64-3.64V54.14c0-2.01,1.63-3.64,3.64-3.64h204.71
	c2.01,0,3.64,1.63,3.64,3.64v13.71C257.5,69.87,255.87,71.5,253.86,71.5z"/>
<path class="st1" d="M114.22,211.18H51.08c-2.72,0-4.93-2.21-4.93-4.93V93.11c0-2.72,2.21-4.93,4.93-4.93h63.14
	c2.72,0,4.93,2.21,4.93,4.93v113.14C119.15,208.98,116.94,211.18,114.22,211.18z"/>
<path class="st1" d="M252.08,174.87H136.51c-2.6,0-4.71-2.11-4.71-4.71V94.58c0-2.6,2.11-4.71,4.71-4.71h115.57
	c2.6,0,4.71,2.11,4.71,4.71v75.57C256.8,172.76,254.68,174.87,252.08,174.87z"/>
<path class="st1" d="M252.65,210.19H135.51c-2.45,0-4.43-1.98-4.43-4.43v-22.14c0-2.45,1.98-4.43,4.43-4.43h117.14
	c2.45,0,4.43,1.98,4.43,4.43v22.14C257.08,208.21,255.1,210.19,252.65,210.19z"/>
<text transform="matrix(1 0 0 1 135.4249 64.0965)" class="st2 st3 st4">Header</text>
<g>
	<text transform="matrix(1 0 0 1 179.7759 135.4178)" class="st2 st3 st4">image</text>
</g>
<g>
	<text transform="matrix(1 0 0 1 67.1282 152.7339)" class="st2 st3 st4">sidebar</text>
</g>
<g>
	<text transform="matrix(1 0 0 1 181.5615 197.7394)" class="st2 st3 st4">article</text>
</g>
<line class="st5" x1="46.5" y1="18.5" x2="46.5" y2="37.5"/>
<line class="st5" x1="258" y1="19" x2="258" y2="38"/>
<line class="st5" x1="9.5" y1="88.5" x2="26.5" y2="88.5"/>
<line class="st5" x1="10" y1="211.5" x2="27" y2="211.5"/>
<g>
	<text transform="matrix(0 -1 1 0 18.3606 145.9751)" class="st2 st3 st4">x fr</text>
</g>
<line class="st5" x1="15" y1="77" x2="15" y2="128"/>
<line class="st5" x1="15.5" y1="146" x2="15.5" y2="197"/>
<line class="st5" x1="10" y1="50" x2="26" y2="50"/>
<line class="st5" x1="11" y1="72" x2="27" y2="72"/>
<g>
	<text transform="matrix(1 0 0 1 144.8569 30.5713)" class="st2 st3 st4">y fr</text>
</g>
<line class="st5" x1="49" y1="28" x2="143" y2="28"/>
<line class="st5" x1="161" y1="28" x2="258" y2="28"/>
<path class="st7" d="M214.5,376h-121v-60.46c0-4.89,3.97-8.86,8.86-8.86h103.29c4.89,0,8.86,3.97,8.86,8.86V376z"/>
<rect x="98.88" y="312.31" class="st8" width="110.25" height="60.75"/>
<line class="st9" x1="48.5" y1="358.5" x2="65.5" y2="375.5"/>
<line class="st9" x1="154.5" y1="308" x2="154.5" y2="281"/>
<line class="st9" x1="65.73" y1="333.98" x2="48.27" y2="300.02"/>
<line class="st9" x1="65.5" y1="333.5" x2="92.5" y2="333.5"/>
<path class="st0" d="M50.12,269.5h-8.24c-2.99,0-5.75,1.59-7.24,4.18l-4.12,7.14c-1.49,2.59-1.49,5.77,0,8.36l4.12,7.14
	c1.49,2.59,4.25,4.18,7.24,4.18h8.24c2.99,0,5.75-1.59,7.24-4.18l4.12-7.14c1.49-2.59,1.49-5.77,0-8.36l-4.12-7.14
	C55.87,271.09,53.11,269.5,50.12,269.5z"/>
<path class="st0" d="M158.12,250.5h-8.24c-2.99,0-5.75,1.59-7.24,4.18l-4.12,7.14c-1.49,2.59-1.49,5.77,0,8.36l4.12,7.14
	c1.49,2.59,4.25,4.18,7.24,4.18h8.24c2.99,0,5.75-1.59,7.24-4.18l4.12-7.14c1.49-2.59,1.49-5.77,0-8.36l-4.12-7.14
	C163.87,252.09,161.11,250.5,158.12,250.5z"/>
<path class="st0" d="M263.12,272.5h-8.24c-2.99,0-5.75,1.59-7.24,4.18l-4.12,7.14c-1.49,2.59-1.49,5.77,0,8.36l4.12,7.14
	c1.49,2.59,4.25,4.18,7.24,4.18h8.24c2.99,0,5.75-1.59,7.24-4.18l4.12-7.14c1.49-2.59,1.49-5.77,0-8.36l-4.12-7.14
	C268.87,274.09,266.11,272.5,263.12,272.5z"/>
<path class="st0" d="M264.12,325.5h-8.24c-2.99,0-5.75,1.59-7.24,4.18l-4.12,7.14c-1.49,2.59-1.49,5.77,0,8.36l4.12,7.14
	c1.49,2.59,4.25,4.18,7.24,4.18h8.24c2.99,0,5.75-1.59,7.24-4.18l4.12-7.14c1.49-2.59,1.49-5.77,0-8.36l-4.12-7.14
	C269.87,327.09,267.11,325.5,264.12,325.5z"/>
<path class="st0" d="M48.12,327.5h-8.24c-2.99,0-5.75,1.59-7.24,4.18l-4.12,7.14c-1.49,2.59-1.49,5.77,0,8.36l4.12,7.14
	c1.49,2.59,4.25,4.18,7.24,4.18h8.24c2.99,0,5.75-1.59,7.24-4.18l4.12-7.14c1.49-2.59,1.49-5.77,0-8.36l-4.12-7.14
	C53.87,329.09,51.11,327.5,48.12,327.5z"/>
<line class="st9" x1="65.5" y1="375.5" x2="92.5" y2="375.5"/>
<line class="st9" x1="214.5" y1="325.5" x2="232.5" y2="325.5"/>
<line class="st9" x1="214.5" y1="375.5" x2="232.5" y2="375.5"/>
<line class="st9" x1="232.5" y1="325.5" x2="255" y2="303"/>
<line class="st9" x1="232.5" y1="375.5" x2="253" y2="355"/>
<text transform="matrix(1 0 0 1 121 358.7109)" class="st11 st12 st13">&lt;/&gt;</text>
<text transform="matrix(1 0 0 1 33.8564 287.7881)" class="st2 st14 st15">HTML5</text>
<text transform="matrix(1 0 0 1 33.8564 346.7881)" class="st2 st14 st15">CSS3</text>
<text transform="matrix(1 0 0 1 145.8569 268.8574)" class="st2 st14 st15">PHP7</text>
<text transform="matrix(1 0 0 1 249.8569 291.8574)" class="st2 st14 st15">  JS</text>
<text transform="matrix(1 0 0 1 248.8569 343.8574)" class="st2 st14 st16">Node.js</text>
</svg>
