<?xml version="1.0" encoding="utf-8"?>
<!-- Generator: Adobe Illustrator 23.0.0, SVG Export Plug-In . SVG Version: 6.00 Build 0)  -->
<svg version="1.1" id="Layer_1" xmlns="http://www.w3.org/2000/svg" xmlns:xlink="http://www.w3.org/1999/xlink" x="0px" y="0px"
	 viewBox="0 0 300 400" style="enable-background:new 0 0 300 400;" xml:space="preserve">
<style type="text/css">
	.st0{fill:none;stroke:#1DD1A1;stroke-miterlimit:10;}
	.st1{fill:none;stroke:#EFEFEF;stroke-width:0.75;stroke-miterlimit:10;}
	.st2{fill:#FFFFFF;}
	.st3{font-family:'Gilroy-Light';}
	.st4{font-size:10px;}
	.st5{fill:none;stroke:#FFFFFF;stroke-width:0.25;stroke-miterlimit:10;}
	.st6{fill:#1DD1A1;}
	.st7{font-family:'ArialMT';}
	.st8{font-size:32.7813px;}
	.st9{font-family:'Gilroy-Regular';}
	.st10{font-size:8px;}
	.st11{font-size:7px;}
	.st12{fill:none;stroke:#FFFFFF;stroke-miterlimit:10;}
</style>
<rect width="300" height="400"/>
<rect x="26.5" y="38.5" class="st0" width="250" height="194"/>
<path class="st1" d="M253.9,71.5H49.1c-2,0-3.6-1.6-3.6-3.6V54.1c0-2,1.6-3.6,3.6-3.6h204.7c2,0,3.6,1.6,3.6,3.6v13.7
	C257.5,69.9,255.9,71.5,253.9,71.5z"/>
<path class="st1" d="M114.2,211.2H51.1c-2.7,0-4.9-2.2-4.9-4.9V93.1c0-2.7,2.2-4.9,4.9-4.9h63.1c2.7,0,4.9,2.2,4.9,4.9v113.1
	C119.2,209,116.9,211.2,114.2,211.2z"/>
<path class="st1" d="M252.1,174.9H136.5c-2.6,0-4.7-2.1-4.7-4.7V94.6c0-2.6,2.1-4.7,4.7-4.7h115.6c2.6,0,4.7,2.1,4.7,4.7v75.6
	C256.8,172.8,254.7,174.9,252.1,174.9z"/>
<path class="st1" d="M252.6,210.2H135.5c-2.4,0-4.4-2-4.4-4.4v-22.1c0-2.4,2-4.4,4.4-4.4h117.1c2.4,0,4.4,2,4.4,4.4v22.1
	C257.1,208.2,255.1,210.2,252.6,210.2z"/>
<text transform="matrix(1 0 0 1 135.4249 64.0965)" class="st2 st3 st4">Header</text>
<g>
	<text transform="matrix(1 0 0 1 179.7759 135.4178)" class="st2 st3 st4">image</text>
</g>
<g>
	<text transform="matrix(1 0 0 1 67.1282 152.7339)" class="st2 st3 st4">sidebar</text>
</g>
<g>
	<text transform="matrix(1 0 0 1 181.5615 197.7394)" class="st2 st3 st4">article</text>
</g>
<line class="st5" x1="46.5" y1="18.5" x2="46.5" y2="37.5"/>
<line class="st5" x1="258" y1="19" x2="258" y2="38"/>
<line class="st5" x1="9.5" y1="88.5" x2="26.5" y2="88.5"/>
<line class="st5" x1="10" y1="211.5" x2="27" y2="211.5"/>
<g>
	<text transform="matrix(0 -1 1 0 18.3606 145.9746)" class="st2 st3 st4">x fr</text>
</g>
<line class="st5" x1="15" y1="77" x2="15" y2="128"/>
<line class="st5" x1="15.5" y1="146" x2="15.5" y2="197"/>
<line class="st5" x1="10" y1="50" x2="26" y2="50"/>
<line class="st5" x1="11" y1="72" x2="27" y2="72"/>
<g>
	<text transform="matrix(1 0 0 1 144.8569 30.5713)" class="st2 st3 st4">y fr</text>
</g>
<line class="st5" x1="49" y1="28" x2="143" y2="28"/>
<line class="st5" x1="161" y1="28" x2="258" y2="28"/>
<path class="st0" d="M61.2,269.7h-8.2c-3,0-5.8,1.6-7.2,4.2l-4.1,7.1c-1.5,2.6-1.5,5.8,0,8.4l4.1,7.1c1.5,2.6,4.3,4.2,7.2,4.2h8.2
	c3,0,5.8-1.6,7.2-4.2l4.1-7.1c1.5-2.6,1.5-5.8,0-8.4l-4.1-7.1C66.9,271.3,64.1,269.7,61.2,269.7z"/>
<path class="st0" d="M158.7,250.7h-8.2c-3,0-5.8,1.6-7.2,4.2l-4.1,7.1c-1.5,2.6-1.5,5.8,0,8.4l4.1,7.1c1.5,2.6,4.3,4.2,7.2,4.2h8.2
	c3,0,5.8-1.6,7.2-4.2l4.1-7.1c1.5-2.6,1.5-5.8,0-8.4l-4.1-7.1C164.4,252.3,161.7,250.7,158.7,250.7z"/>
<path class="st0" d="M256.8,271.2h-8.2c-3,0-5.8,1.6-7.2,4.2l-4.1,7.1c-1.5,2.6-1.5,5.8,0,8.4l4.1,7.1c1.5,2.6,4.3,4.2,7.2,4.2h8.2
	c3,0,5.8-1.6,7.2-4.2l4.1-7.1c1.5-2.6,1.5-5.8,0-8.4l-4.1-7.1C262.6,272.8,259.8,271.2,256.8,271.2z"/>
<path class="st0" d="M274.5,333.9h-8.2c-3,0-5.8,1.6-7.2,4.2l-4.1,7.1c-1.5,2.6-1.5,5.8,0,8.4l4.1,7.1c1.5,2.6,4.3,4.2,7.2,4.2h8.2
	c3,0,5.8-1.6,7.2-4.2l4.1-7.1c1.5-2.6,1.5-5.8,0-8.4l-4.1-7.1C280.2,335.5,277.5,333.9,274.5,333.9z"/>
<path class="st0" d="M34.1,332h-8.2c-3,0-5.8,1.6-7.2,4.2l-4.1,7.1c-1.5,2.6-1.5,5.8,0,8.4l4.1,7.1c1.5,2.6,4.3,4.2,7.2,4.2h8.2
	c3,0,5.8-1.6,7.2-4.2l4.1-7.1c1.5-2.6,1.5-5.8,0-8.4l-4.1-7.1C39.9,333.5,37.1,332,34.1,332z"/>
<text transform="matrix(1 0 0 1 127.0801 345.8418)" class="st6 st7 st8">&lt;/&gt;</text>
<text transform="matrix(1 0 0 1 44.8283 287.6022)" class="st2 st9 st10">HTML5</text>
<text transform="matrix(1 0 0 1 20.3802 349.8734)" class="st2 st9 st10">CSS3</text>
<text transform="matrix(1 0 0 1 145.2885 268.6367)" class="st2 st9 st10">PHP7</text>
<text transform="matrix(1 0 0 1 246.1705 289.1367)" class="st2 st9 st10"> JS</text>
<text transform="matrix(1 0 0 1 258.5134 351.4858)" class="st2 st9 st11">Node.js</text>
<rect x="91.5" y="300.3" class="st12" width="120.9" height="74.1"/>
<line class="st12" x1="144.9" y1="374.4" x2="144.9" y2="390.9"/>
<line class="st12" x1="160.9" y1="374.4" x2="160.9" y2="390.9"/>
<line class="st12" x1="144.9" y1="390.9" x2="160.9" y2="390.9"/>
<line class="st12" x1="91.5" y1="366.4" x2="212.4" y2="366.4"/>
</svg>
