<svg id="Layer_1" data-name="Layer 1" xmlns="http://www.w3.org/2000/svg" viewBox="0 0 300 400"><defs><style>.cls-1,.cls-10,.cls-2,.cls-7{fill:none;}.cls-1,.cls-11{stroke:#2ecc71;}.cls-1,.cls-10,.cls-11,.cls-2,.cls-7{stroke-miterlimit:10;}.cls-10,.cls-2{stroke:#efefef;}.cls-2{stroke-width:0.75px;}.cls-3{font-size:10px;font-family:Gilroy-Light, Gilroy;font-weight:300;}.cls-12,.cls-16,.cls-3{fill:#fff;}.cls-4{letter-spacing:0em;}.cls-5{letter-spacing:0.01em;}.cls-6{letter-spacing:0em;}.cls-7{stroke:#fff;stroke-width:0.25px;}.cls-8{fill:#d1d1d1;}.cls-9{fill:#222f3e;}.cls-10{stroke-width:0.5px;}.cls-11{font-size:41.69px;fill:#2ecc71;font-family:MyriadPro-Regular, Myriad Pro;}.cls-12{font-size:8px;}.cls-12,.cls-16{font-family:Gilroy-Regular, Gilroy;}.cls-13{letter-spacing:-0.02em;}.cls-14{letter-spacing:0em;}.cls-15{letter-spacing:-0.03em;}.cls-16{font-size:7px;}.cls-17{letter-spacing:-0.04em;}.cls-18{letter-spacing:0em;}</style></defs><title>web</title><rect width="300" height="400"/><rect class="cls-1" x="24.5" y="25.5" width="250" height="194"/><rect class="cls-2" x="43.5" y="37.5" width="212" height="21" rx="3.64"/><rect class="cls-2" x="44.15" y="75.18" width="73" height="123" rx="4.93"/><rect class="cls-2" x="129.8" y="76.87" width="125" height="85" rx="4.71"/><rect class="cls-2" x="129.08" y="166.19" width="126" height="31" rx="4.43"/><text class="cls-3" transform="translate(133.42 51.1)">Header</text><text class="cls-3" transform="translate(177.78 122.42)">image</text><text class="cls-3" transform="translate(65.13 139.73)"><tspan class="cls-4">s</tspan><tspan x="4.53" y="0">idebar</tspan></text><text class="cls-3" transform="translate(179.56 184.74)">a<tspan class="cls-5" x="6.45" y="0">r</tspan><tspan class="cls-6" x="9.7" y="0">ticle</tspan></text><line class="cls-7" x1="44.5" y1="5.5" x2="44.5" y2="24.5"/><line class="cls-7" x1="256" y1="6" x2="256" y2="25"/><line class="cls-7" x1="7.5" y1="75.5" x2="24.5" y2="75.5"/><line class="cls-7" x1="8" y1="198.5" x2="25" y2="198.5"/><text class="cls-3" transform="translate(16.36 143.98) rotate(-90)">x fr</text><line class="cls-7" x1="14" y1="77" x2="14" y2="128"/><line class="cls-7" x1="14.5" y1="146" x2="14.5" y2="197"/><line class="cls-7" x1="8" y1="37" x2="24" y2="37"/><line class="cls-7" x1="9" y1="59" x2="25" y2="59"/><text class="cls-3" transform="translate(142.86 17.57)">y fr</text><line class="cls-7" x1="47" y1="15" x2="141" y2="15"/><line class="cls-7" x1="159" y1="15" x2="256" y2="15"/><path class="cls-8" d="M100.36,293.69H203.64a8.86,8.86,0,0,1,8.86,8.86V363a0,0,0,0,1,0,0H91.5a0,0,0,0,1,0,0V302.54A8.86,8.86,0,0,1,100.36,293.69Z"/><rect class="cls-9" x="96.87" y="299.31" width="110.25" height="60.75"/><line class="cls-10" x1="46.5" y1="345.5" x2="63.5" y2="362.5"/><line class="cls-10" x1="152.5" y1="295" x2="152.5" y2="268"/><line class="cls-10" x1="63.73" y1="320.98" x2="46.27" y2="287.02"/><line class="cls-10" x1="63.5" y1="320.5" x2="90.5" y2="320.5"/><path class="cls-1" d="M48.12,256.5H39.88a8.34,8.34,0,0,0-7.24,4.18l-4.12,7.14a8.33,8.33,0,0,0,0,8.36l4.12,7.14a8.34,8.34,0,0,0,7.24,4.18h8.24a8.34,8.34,0,0,0,7.24-4.18l4.12-7.14a8.33,8.33,0,0,0,0-8.36l-4.12-7.14A8.34,8.34,0,0,0,48.12,256.5Z"/><path class="cls-1" d="M156.12,237.5h-8.24a8.34,8.34,0,0,0-7.24,4.18l-4.12,7.14a8.33,8.33,0,0,0,0,8.36l4.12,7.14a8.34,8.34,0,0,0,7.24,4.18h8.24a8.34,8.34,0,0,0,7.24-4.18l4.12-7.14a8.33,8.33,0,0,0,0-8.36l-4.12-7.14A8.34,8.34,0,0,0,156.12,237.5Z"/><path class="cls-1" d="M261.12,259.5h-8.24a8.34,8.34,0,0,0-7.24,4.18l-4.12,7.14a8.33,8.33,0,0,0,0,8.36l4.12,7.14a8.34,8.34,0,0,0,7.24,4.18h8.24a8.34,8.34,0,0,0,7.24-4.18l4.12-7.14a8.33,8.33,0,0,0,0-8.36l-4.12-7.14A8.34,8.34,0,0,0,261.12,259.5Z"/><path class="cls-1" d="M262.12,312.5h-8.24a8.34,8.34,0,0,0-7.24,4.18l-4.12,7.14a8.33,8.33,0,0,0,0,8.36l4.12,7.14a8.34,8.34,0,0,0,7.24,4.18h8.24a8.34,8.34,0,0,0,7.24-4.18l4.12-7.14a8.33,8.33,0,0,0,0-8.36l-4.12-7.14A8.34,8.34,0,0,0,262.12,312.5Z"/><path class="cls-1" d="M46.12,314.5H37.88a8.34,8.34,0,0,0-7.24,4.18l-4.12,7.14a8.33,8.33,0,0,0,0,8.36l4.12,7.14a8.34,8.34,0,0,0,7.24,4.18h8.24a8.34,8.34,0,0,0,7.24-4.18l4.12-7.14a8.33,8.33,0,0,0,0-8.36l-4.12-7.14A8.34,8.34,0,0,0,46.12,314.5Z"/><line class="cls-10" x1="63.5" y1="362.5" x2="90.5" y2="362.5"/><line class="cls-10" x1="212.5" y1="312.5" x2="230.5" y2="312.5"/><line class="cls-10" x1="212.5" y1="362.5" x2="230.5" y2="362.5"/><line class="cls-10" x1="230.5" y1="312.5" x2="253" y2="290"/><line class="cls-10" x1="230.5" y1="362.5" x2="251" y2="342"/><text class="cls-11" transform="translate(119 342.71)">&lt;/&gt;</text><text class="cls-12" transform="translate(31.86 274.79)">HTML5</text><text class="cls-12" transform="translate(31.86 333.79)">C<tspan class="cls-13" x="5.96" y="0">S</tspan><tspan class="cls-14" x="10.37" y="0">S3</tspan></text><text class="cls-12" transform="translate(143.86 255.86)">PH<tspan class="cls-15" x="10.16" y="0">P</tspan><tspan x="14.64" y="0">7</tspan></text><text class="cls-12" transform="translate(247.86 278.86)"><tspan xml:space="preserve">  JS</tspan></text><text class="cls-16" transform="translate(246.86 330.86)">Nod<tspan class="cls-17" x="13.45" y="0">e</tspan><tspan class="cls-18" x="17.26" y="0">.js</tspan></text></svg>